<?xml version="1.0" encoding="utf-8"?>
<!-- Generator: Adobe Illustrator 19.1.1, SVG Export Plug-In . SVG Version: 6.00 Build 0)  -->
<svg version="1.1" id="Layer_1" xmlns="http://www.w3.org/2000/svg" xmlns:xlink="http://www.w3.org/1999/xlink" x="0px" y="0px"
	 viewBox="-419 221 120 120" style="enable-background:new -419 221 120 120;" xml:space="preserve">
<style type="text/css">
	.st0{fill:#414042;}
	.st1{fill:#FFFFFF;}
	.st2{fill:#FFFFFF;stroke:#414042;stroke-width:3;stroke-miterlimit:10;}
	.st3{fill:none;stroke:#ED1C24;stroke-width:3;stroke-linecap:round;stroke-linejoin:round;stroke-miterlimit:10;}
	.st4{fill:#00A651;}
</style>
<circle class="st0" cx="-359" cy="281" r="60"/>
<g>
	<polygon class="st1" points="-391.7,236 -391.7,320.8 -326.3,320.8 -326.3,255.2 -345.5,236 	"/>
	<polygon class="st2" points="-326.3,255.2 -345.5,236 -345.5,255.2 	"/>
</g>
<g>
	<g>
		<g>
			<polyline class="st3" points="-339,292.1 -336,289.2 -333.1,292.1 			"/>
		</g>
		<g>
			<polyline class="st3" points="-345,292.1 -342,289.2 -339.1,292.1 			"/>
		</g>
		<g>
			<polyline class="st3" points="-351,292.1 -348,289.2 -345.1,292.1 			"/>
		</g>
		<g>
			<polyline class="st3" points="-357,292.1 -354,289.2 -351.1,292.1 			"/>
		</g>
		<g>
			<polyline class="st3" points="-363,292.1 -360,289.2 -357.1,292.1 			"/>
		</g>
		<g>
			<polyline class="st3" points="-369,292.1 -366,289.2 -363.1,292.1 			"/>
		</g>
		<g>
			<polyline class="st3" points="-375,292.1 -372,289.2 -369.1,292.1 			"/>
		</g>
		<g>
			<polyline class="st3" points="-381,292.1 -378,289.2 -375.1,292.1 			"/>
		</g>
	</g>
	<g>
		<g>
			<path d="M-332.6,283.7c-1.2,1.2-2.5,1.9-3.8,2c-0.9,0.1-2.8,0.2-5.6,0.2c-1.4,0-3.5,0-6.3-0.1c-1.5-0.1-2.9-0.9-4.3-2.2
				c-0.7-0.7-1.3-1.6-1.7-2.7l-5.4-0.1c-0.6,1.3-1.2,2.3-1.8,2.8c-1.2,1.2-2.5,1.9-4,2c-0.8,0.1-2.6,0.1-5.4,0.2c-1.3,0-3.3,0-6,0
				c-0.5,0-1-0.1-1.6-0.3c-1.1-0.4-2.1-1-2.9-1.8c-1.4-1.4-2.1-3.2-2.1-5.3s0.7-3.9,2.1-5.3c1.3-1.3,2.7-2,4.1-2.1
				c1-0.1,2.8-0.1,5.5-0.1c1.3,0,3.1,0,5.7,0c0.7,0,1.5,0.3,2.5,0.8c0.9,0.5,1.6,1,2.2,1.5c0.7,0.7,1.3,1.7,1.7,2.7l5.4,0
				c0.2-0.9,0.8-1.8,1.7-2.8c0.9-0.9,2-1.6,3.1-1.9c1-0.3,2.6-0.4,5.1-0.4c1.8,0,3.6,0.1,5.3,0.1c1,0,1.9,0,2.4,0.1
				c1.5,0.2,2.9,0.9,4,2.1c1.4,1.4,2.2,3.2,2.2,5.3S-331.2,282.3-332.6,283.7z M-336.2,280.2c0.5-0.5,0.7-1.1,0.8-1.8
				s-0.2-1.3-0.7-1.8s-1-0.7-1.6-0.8c0,0-1,0-3,0.1c-2.6,0-4.5,0.1-5.8,0.1c0.3,0.2,0.6,0.4,0.8,0.6c0.5,0.5,0.7,1.1,0.7,1.9
				c0,0.8-0.2,1.4-0.7,1.9c-0.2,0.2-0.5,0.4-0.9,0.6c2.9,0,5,0,6.5,0c0.7,0,1.6,0,2.8-0.1C-336.8,280.7-336.5,280.5-336.2,280.2z
				 M-333.8,282.5c1.1-1.1,1.6-2.5,1.6-4.1s-0.6-3-1.7-4.1c-1.1-1.1-2.2-1.6-3.3-1.7c-1-0.1-2.9-0.1-5.7-0.1c-1.2,0-2.9,0-5.3,0.1
				c-1.1,0.1-2.2,0.7-3.3,1.7c-0.7,0.7-1,1.2-1,1.6c0.4,0,1,0,1.9,0c0.1-0.1,0.2-0.2,0.3-0.3c0.8-0.8,1.6-1.3,2.4-1.3
				c0.9,0,2.9,0,6,0c1.1,0,2.7,0,4.9,0.2c0.7,0.1,1.4,0.5,2,1.1c0.8,0.8,1.2,1.8,1.2,2.9c0,1.1-0.4,2.1-1.2,2.9
				c-0.7,0.7-1.4,1.1-2.1,1.2c-0.7,0.1-2.9,0.1-6.5,0c-1.1,0-2.2,0-3.3,0c-1.3-0.1-2.3-0.4-2.9-1c-0.1-0.1-0.1-0.2-0.2-0.3
				c-0.1-0.1-0.2-0.2-0.2-0.3s-0.8-0.1-2.1,0c0.2,0.6,0.6,1.1,1.1,1.6c0.8,0.8,1.6,1.3,2.4,1.4c0.6,0.1,2.3,0.2,5,0.2
				c1.3,0,2.6,0.1,3.9,0.1c1.7,0,2.9-0.1,3.8-0.3C-335.5,283.8-334.6,283.3-333.8,282.5z M-346.8,279.1c0.1-0.1,0.2-0.4,0.1-0.7
				s-0.1-0.6-0.2-0.7c-0.1,0-0.4,0-0.9,0c-0.1,0-5.6,0-16.3-0.1c-2.1,0-3.2,0-3.3,0.2c-0.1,0.1-0.2,0.3-0.2,0.7s0,0.6,0.1,0.7
				s1.5,0.2,4.2,0.2c3.5,0,8.7,0,15.6,0C-347.4,279.2-347.1,279.1-346.8,279.1z M-362.6,282.5c0.5-0.5,0.9-1,1.1-1.5
				c-0.4-0.1-0.8-0.1-1.2-0.2c-0.5,0-0.8,0.1-1.1,0.4c-0.1,0.1-0.2,0.2-0.3,0.3s-0.2,0.2-0.3,0.3c-0.4,0.4-0.8,0.6-1.4,0.7
				c-0.7,0.1-2.7,0.2-5.9,0.2c-3.3,0-5.2-0.1-5.7-0.2c-0.7-0.2-1.3-0.6-1.8-1.1c-0.8-0.8-1.2-1.8-1.2-2.9s0.4-2.1,1.2-2.9
				c0.8-0.8,1.7-1.2,2.7-1.2c0.5,0,2.5,0,5.9,0c1,0,2.5,0,4.6,0.1c0.7,0.1,1.3,0.4,2,1.1c0,0,0.1,0.1,0.2,0.2
				c0.1,0.1,0.1,0.2,0.2,0.2c0.1,0.1,0.8,0.1,2,0c-0.2-0.6-0.6-1.1-1-1.6c-0.9-0.9-2-1.5-3.2-1.6c-1.5-0.1-3.7-0.2-6.8-0.2
				c-1,0-2.6,0-4.6,0.1c-1,0.1-2,0.6-3,1.7c-1.1,1.1-1.7,2.5-1.7,4.1c0,1.6,0.5,3,1.7,4.1c1,1,2.1,1.6,3.2,1.6
				c1.2,0.1,3.4,0.1,6.4,0.1c1.1,0,2.7,0,4.9-0.1C-364.7,284.1-363.6,283.5-362.6,282.5z M-367.8,280.9c-0.3-0.2-0.5-0.3-0.7-0.5
				c-0.5-0.5-0.7-1.1-0.7-2c0-0.8,0.3-1.5,0.8-2c0.2-0.2,0.4-0.4,0.7-0.5c-2-0.1-4.9,0-8.7,0c-0.6,0-1.1,0.3-1.4,0.6
				c-0.5,0.5-0.7,1.1-0.7,1.8s0.3,1.3,0.7,1.8c0.5,0.5,0.9,0.7,1.3,0.8c0.3,0,1.1,0,2.5,0.1C-372.7,280.9-370.6,280.9-367.8,280.9z"
				/>
		</g>
	</g>
</g>
<g>
	<circle class="st4" cx="-335.9" cy="311.4" r="14.9"/>
	<g>
		<g>
			<path class="st1" d="M-339.1,319.9c-0.7,0-1.3-0.3-1.8-0.7l-4.1-4.1c-1-1-1-2.5,0-3.5s2.5-1,3.5,0l2.3,2.3l8.7-8.7
				c1-1,2.5-1,3.5,0s1,2.5,0,3.5l-10.3,10.4C-337.8,319.6-338.4,319.9-339.1,319.9z"/>
		</g>
	</g>
</g>
</svg>
